PathFileType	4	(X/Y/Z)	/Users/itak/Documents/Research/Walk-IL/dataset/trc/00401_00012.trc
DataRate	CameraRate	NumFrames	NumMarkers	Units	OrigDataRate	OrigDataStartFrame	OrigNumFrames
100.000000	100.000000	4	53	mm	100.000000	453	726
Frame#	Time	RPSI			LPSI			L3			STRN			T10			C7			CLAV			RBAK			LBAK			LSHO			LUPA			LAEL			LAOL			LWTS			LWPS			LFRA			LIFD			LHPS			LHTS			RSHO			RUPA			RAEL			RAOL			RWTS			RWPS			RFRA			RIFD			RHTS			RHPS			RBHD			LFHD			RFHD			LBHD			LHIP			RHIP			RASI			LASI			LKNE			LTHI			LANK			LTIP			LTOE			LMT1			LMT5			LHEE			RKNE			RTHI			RANK			RTIP			RTOE			RMT1			RMT5			RHEE			
		X1	Y1	Z1	X2	Y2	Z2	X3	Y3	Z3	X4	Y4	Z4	X5	Y5	Z5	X6	Y6	Z6	X7	Y7	Z7	X8	Y8	Z8	X9	Y9	Z9	X10	Y10	Z10	X11	Y11	Z11	X12	Y12	Z12	X13	Y13	Z13	X14	Y14	Z14	X15	Y15	Z15	X16	Y16	Z16	X17	Y17	Z17	X18	Y18	Z18	X19	Y19	Z19	X20	Y20	Z20	X21	Y21	Z21	X22	Y22	Z22	X23	Y23	Z23	X24	Y24	Z24	X25	Y25	Z25	X26	Y26	Z26	X27	Y27	Z27	X28	Y28	Z28	X29	Y29	Z29	X30	Y30	Z30	X31	Y31	Z31	X32	Y32	Z32	X33	Y33	Z33	X34	Y34	Z34	X35	Y35	Z35	X36	Y36	Z36	X37	Y37	Z37	X38	Y38	Z38	X39	Y39	Z39	X40	Y40	Z40	X41	Y41	Z41	X42	Y42	Z42	X43	Y43	Z43	X44	Y44	Z44	X45	Y45	Z45	X46	Y46	Z46	X47	Y47	Z47	X48	Y48	Z48	X49	Y49	Z49	X50	Y50	Z50	X51	Y51	Z51	X52	Y52	Z52	X53	Y53	Z53	

454	4.53	-268.8439025878906	958.5708618164062	-642.9156494140625	-197.29248046875	928.7618408203125	-535.550048828125	-234.1987609863281	1023.430786132812	-594.5691528320312	-428.8097229003906	1179.853393554688	-457.7850036621094	-222.8730773925781	1128.642333984375	-599.2920532226562	-254.4482421875	1376.06640625	-566.78173828125	-381.2715454101562	1298.563842773438	-483.2374572753906	-258.5581970214844	1234.3193359375	-652.8219604492188	-181.5996398925781	1336.39306640625	-499.0641479492188	-215.9427185058594	1347.034057617188	-405.3123474121094	-138.6112823486328	1236.295654296875	-395.17822265625	-100.3195877075195	1044.011352539062	-419.3951416015625	-121.5986480712891	1037.379272460938	-502.3138732910156	-145.3399658203125	809.8751831054688	-422.6415100097656	-64.96819305419922	815.177490234375	-434.8695678710938	-82.26912689208984	940.4719848632812	-427.430419921875	-107.3975143432617	631.6865844726562	-448.182373046875	-62.85488510131836	730.0509643554688	-452.6504516601562	-117.1703948974609	712.9454345703125	-427.2464294433594	-388.8649291992188	1364.690063476562	-662.772216796875	-415.4371337890625	1304.249389648438	-722.0426025390625	-496.9576110839844	1055.44921875	-770.3270874023438	-442.8667602539062	1028.046875	-694.4378051757812	-689.9393310546875	931.3213500976562	-676.533935546875	-681.7680053710938	903.2229614257812	-744.5415649414062	-551.0706176757812	1008.165893554688	-769.6488647460938	-795.6963500976562	794.490234375	-668.412353515625	-771.579833984375	862.2312622070312	-682.4974365234375	-737.5753784179688	836.7821044921875	-736.4511108398438	-335.2983093261719	1553.922119140625	-622.4844970703125	-322.3191833496094	1578.410766601562	-423.6773986816406	-403.4884033203125	1588.480834960938	-513.5369262695312	-215.0975341796875	1535.086669921875	-517.0905151367188	-217.3292999267578	914.4091186523438	-393.8457336425781	-398.2440490722656	949.5640258789062	-702.7601928710938	-488.0993957519531	947.4763793945312	-589.6763916015625	-338.1845703125	926.04833984375	-373.9911499023438	-443.0082092285156	470.38623046875	-323.6690979003906	-368.2661743164062	588.3345336914062	-339.2638854980469	-575.9405517578125	38.01827239990234	-344.2867736816406	-499.07421875	241.1932678222656	-326.5740966796875	-741.6255493164062	122.1497650146484	-237.811279296875	-720.24169921875	97.78351593017578	-312.2715759277344	-640.953125	75.56217956542969	-243.3348693847656	-592.1380004882812	34.55352783203125	-409.8200073242188	-358.6867065429688	464.0379943847656	-717.8101806640625	-443.9303894042969	716.3676147460938	-683.7269897460938	-221.1098175048828	58.45491790771484	-761.5635986328125	-335.8234558105469	336.6226196289062	-717.2243041992188	-363.16455078125	37.35052490234375	-636.6079711914062	-280.7939758300781	41.30150985717773	-637.2415161132812	-300.1874084472656	42.6322135925293	-736.6342163085938	-132.1488952636719	53.25725555419922	-741.9102172851562	
455	4.54	-277.4215698242188	956.94384765625	-637.5331420898438	-205.6202087402344	926.989013671875	-530.427978515625	-242.9009399414062	1021.42138671875	-589.2100830078125	-437.1842346191406	1177.678588867188	-452.5560607910156	-231.5993957519531	1126.541625976562	-594.2465209960938	-263.0168151855469	1374.049072265625	-561.8489990234375	-389.6941833496094	1296.381713867188	-477.9803466796875	-267.358154296875	1232.212890625	-647.755615234375	-189.9841766357422	1334.239624023438	-494.3791809082031	-224.0367126464844	1344.80224609375	-400.52734375	-146.7772827148438	1233.934936523438	-390.9667358398438	-108.5712051391602	1041.762451171875	-415.619384765625	-130.2158203125	1035.150634765625	-498.4305725097656	-152.7876129150391	807.3951416015625	-420.4716186523438	-72.42926025390625	813.2906494140625	-432.2540283203125	-90.22698974609375	938.3662719726562	-424.1369934082031	-114.7470397949219	629.2933349609375	-446.8052673339844	-69.62896728515625	728.3837890625	-451.0447692871094	-123.8744277954102	710.6776123046875	-426.1604614257812	-397.6599426269531	1362.620361328125	-657.5486450195312	-424.4757690429688	1301.89697265625	-716.5772705078125	-507.0419006347656	1053.07421875	-763.2627563476562	-452.9366760253906	1025.822509765625	-687.3427734375	-701.4910888671875	933.0158081054688	-668.0603637695312	-693.7545776367188	903.86376953125	-735.7199096679688	-561.4620971679688	1006.573486328125	-762.105224609375	-809.5965576171875	798.3070068359375	-658.0831909179688	-784.4838256835938	865.44287109375	-673.1083984375	-750.6617431640625	838.5516967773438	-726.6911010742188	-343.9696350097656	1551.93505859375	-617.3927001953125	-329.7825317382812	1576.45654296875	-418.6488952636719	-411.5434875488281	1586.656860351562	-508.0509033203125	-223.2241058349609	1532.8251953125	-512.7477416992188	-225.8303070068359	912.066162109375	-388.5776977539062	-406.8305358886719	947.9923706054688	-697.4374389648438	-496.9483947753906	945.4766235351562	-584.47265625	-346.8241882324219	923.4824829101562	-368.7095947265625	-448.6841125488281	466.8720092773438	-319.583984375	-373.9273986816406	584.827880859375	-335.4640197753906	-592.8675537109375	37.52145385742188	-332.9169616699219	-510.3289794921875	239.4476470947266	-319.1247863769531	-756.1326904296875	127.9708404541016	-227.4518585205078	-735.3067626953125	101.9689178466797	-301.6654663085938	-656.8850708007812	78.12880706787109	-232.3722991943359	-609.0090942382812	33.71147918701172	-398.4552917480469	-364.2686462402344	463.2428894042969	-714.6018676757812	-451.2396240234375	714.891357421875	-679.4547729492188	-221.5734405517578	59.36655807495117	-761.5850219726562	-340.1203002929688	336.044189453125	-715.1297607421875	-363.2626647949219	37.26468658447266	-636.6767578125	-281.013427734375	41.61676788330078	-637.3489379882812	-300.4934692382812	42.64080429077148	-736.6886596679688	-132.4670715332031	55.2010612487793	-741.9404907226562	
456	4.55	-286.1681213378906	955.32373046875	-632.0010375976562	-214.156494140625	925.3031005859375	-525.0889892578125	-251.6661071777344	1019.532775878906	-583.7199096679688	-445.6044006347656	1175.646850585938	-447.1557922363281	-240.5027923583984	1124.541137695312	-589.0875244140625	-271.5640258789062	1372.166870117188	-556.7380981445312	-398.1308898925781	1294.3251953125	-472.5629272460938	-276.1868591308594	1230.217651367188	-642.4967041015625	-198.35595703125	1332.227172851562	-489.4645385742188	-232.1792449951172	1342.700805664062	-395.5264282226562	-155.0332183837891	1231.660522460938	-386.4205932617188	-116.996940612793	1039.56005859375	-411.3520812988281	-138.8605804443359	1032.965698242188	-494.1008605957031	-160.6807098388672	805.0228271484375	-417.8018188476562	-80.29995727539062	811.3960571289062	-428.9281921386719	-98.44896697998047	936.2736206054688	-420.2678833007812	-122.74658203125	626.9606323242188	-444.9437866210938	-76.90080261230469	726.6900634765625	-448.7675170898438	-131.2284240722656	708.4703369140625	-424.590087890625	-406.4515380859375	1360.680053710938	-652.1510009765625	-433.4761962890625	1299.668212890625	-710.9436645507812	-516.8502807617188	1050.777221679688	-756.087158203125	-462.7053527832031	1023.738952636719	-680.1572875976562	-712.408203125	934.3336181640625	-659.46630859375	-705.2376708984375	904.3070068359375	-726.840087890625	-571.5059204101562	1004.989562988281	-754.4635620117188	-822.5975341796875	801.5571899414062	-647.8021850585938	-796.630615234375	868.1323852539062	-663.653564453125	-763.0523681640625	840.0202026367188	-716.9545288085938	-352.522216796875	1550.054809570312	-612.2026977539062	-337.2474365234375	1574.6689453125	-413.5343322753906	-419.5146789550781	1584.99169921875	-502.5100708007812	-231.2904968261719	1530.685668945312	-508.2310791015625	-234.3354644775391	910.0086669921875	-383.1741333007812	-415.6075744628906	946.4083251953125	-691.8728637695312	-505.94287109375	943.54052734375	-578.9440307617188	-355.446533203125	921.1751708984375	-363.2178649902344	-454.8553466796875	463.8876953125	-315.2578430175781	-380.2296142578125	581.8447265625	-331.4522094726562	-607.0360107421875	36.82866287231445	-323.0600280761719	-520.4387817382812	237.8698120117188	-312.292724609375	-768.6749267578125	132.2751922607422	-219.1042175292969	-748.0339965820312	104.9261093139648	-293.0039367675781	-670.5946655273438	79.84005737304688	-223.1243896484375	-622.8798828125	32.67570114135742	-388.6763916015625	-370.3348388671875	462.4325561523438	-711.020263671875	-458.8443603515625	713.4107666015625	-674.7596435546875	-222.2364044189453	60.49850845336914	-761.7395629882812	-344.78271484375	335.4767761230469	-712.7579956054688	-363.3354187011719	37.16943740844727	-636.7285766601562	-281.26806640625	42.02117156982422	-637.5340576171875	-300.9459228515625	42.66378021240234	-736.8136596679688	-132.9932098388672	57.52499389648438	-742.201171875	
457	4.56	-295.1302490234375	953.7470092773438	-626.3184814453125	-222.9402313232422	923.7280883789062	-519.539306640625	-260.5234680175781	1017.783142089844	-578.1107788085938	-454.0584716796875	1173.8056640625	-441.5518798828125	-249.5812530517578	1122.679077148438	-583.8258056640625	-280.0911254882812	1370.443481445312	-551.4638061523438	-406.5631408691406	1292.439697265625	-466.9714965820312	-285.0533752441406	1228.371215820312	-637.068115234375	-206.7090454101562	1330.387451171875	-484.3510437011719	-240.3415374755859	1340.778564453125	-390.3319702148438	-163.3513946533203	1229.524291992188	-381.5638427734375	-125.591438293457	1037.454223632812	-406.6031799316406	-147.52294921875	1030.8759765625	-489.3309326171875	-169.0225372314453	802.8131713867188	-414.5984191894531	-88.58349609375	809.5311279296875	-424.8634338378906	-106.9334411621094	934.2357788085938	-415.8210754394531	-131.3598327636719	624.7296142578125	-442.5276794433594	-84.69493865966797	724.9939575195312	-445.7715148925781	-139.1960296630859	706.36474609375	-422.4650268554688	-415.2581787109375	1358.894775390625	-646.5689697265625	-442.4608459472656	1297.60302734375	-705.1331787109375	-526.3875122070312	1048.598754882812	-748.836181640625	-472.1784057617188	1021.820373535156	-672.9136352539062	-722.7103271484375	935.269775390625	-650.7820434570312	-716.2192993164062	904.540771484375	-717.9286499023438	-581.2090454101562	1003.429931640625	-746.759521484375	-834.6969604492188	804.1990966796875	-637.5604858398438	-808.0100708007812	870.270263671875	-654.1387329101562	-774.752197265625	841.1492919921875	-707.2525634765625	-360.9505920410156	1548.302612304688	-606.91357421875	-344.6977844238281	1573.076293945312	-408.3304748535156	-427.390869140625	1583.512329101562	-496.9092712402344	-239.2952117919922	1528.694091796875	-503.5404663085938	-242.8720092773438	908.2941284179688	-377.6488647460938	-424.6305541992188	944.84326171875	-686.0441284179688	-515.0919799804688	941.7029418945312	-573.0452880859375	-364.0512390136719	919.195068359375	-357.48681640625	-461.5611267089844	461.4841003417969	-310.6323852539062	-387.200439453125	579.4568481445312	-327.1472778320312	-618.4111938476562	35.81760406494141	-314.9560546875	-529.4382934570312	236.3543853759766	-306.125732421875	-779.2163696289062	134.6053771972656	-212.5839233398438	-758.4879150390625	106.3220367431641	-286.1867370605469	-681.9337768554688	80.40773773193359	-215.6549682617188	-633.8275756835938	31.35298728942871	-380.6811218261719	-376.8817138671875	461.6219787597656	-707.0350341796875	-466.7844848632812	711.9338989257812	-669.5805053710938	-223.1079711914062	61.89544677734375	-762.009521484375	-349.7971496582031	334.9504699707031	-710.0901489257812	-363.3894653320312	37.06428527832031	-636.7566528320312	-281.5659484863281	42.52292251586914	-637.7843017578125	-301.5568542480469	42.7141227722168	-736.9959106445312	-133.7410888671875	60.29268264770508	-742.6558227539062	
